# xmcd
#
# Track frame offsets:
# 150
# 10304
# 23179
# 35624
# 46924
# 64662
# 79230
# 96263
# 107472
# 122464
# 132213
# 144538
#
# Disc length: 2087 seconds
#
#
# Revision: 0
# Processed by: cddbd v1.5.1PL2 Copyright (c) Steve Scherf et al.
# Submitted via: FreeRIP 2.945 
#
DISCID=9808250c
DTITLE=Tá Do Jeito Que Eu Queria - Tá Do Jeito Que Eu Queria
DYEAR=1900
DGENRE=Sertanejo
TTITLE0=Você É Minha Razão
TTITLE1=Vestido Colado
TTITLE2=Anjo Mulher
TTITLE3=Eternos Companheiros
TTITLE4=Esta Saudade
TTITLE5=Quem Não Pimbou,Não Pimba Mais
TTITLE6=Sentidos
TTITLE7=O Filho Do Carreteiro
TTITLE8=Aqui
TTITLE9=Tá Do Jeito Que Eu Queria
TTITLE10=Cadeira Amiga
TTITLE11=Comadre Gabriela
EXTD=
EXTT0=
EXTT1=
EXTT2=
EXTT3=
EXTT4=
EXTT5=
EXTT6=
EXTT7=
EXTT8=
EXTT9=
EXTT10=
EXTT11=
PLAYORDER=
